<?xml version="1.0" encoding="utf-8"?><svg viewBox="0 0 24 24" xmlns="http://www.w3.org/2000/svg" xmlns:xlink="http://www.w3.org/1999/xlink"><style>:root>svg{display:none}:root>svg:target{display:block}</style><svg version="1.1" id="fast" x="0" y="0" viewBox="0 0 24 24" xml:space="preserve" xmlns="http://www.w3.org/2000/svg"><style>.ast0{fill:#fff}</style><path class="ast0" d="M12.6 12.1V5.5L0 12.8l12.6 6.6v-6l11.4 6V5.5l-11.4 6.6zm-2.2 3.7l-5.9-3.1 5.9-3.4v6.5zm11.4 0l-5.9-3.1 5.9-3.4v6.5z"/></svg><svg version="1.1" id="fast-hover" x="0" y="0" viewBox="0 0 24 24" xml:space="preserve" xmlns="http://www.w3.org/2000/svg"><style>.bst0{fill:#fff}</style><path class="bst0" d="M12.6 12.1V5.5L0 12.8l12.6 6.6v-6l11.4 6V5.5l-11.4 6.6z"/></svg><svg version="1.1" id="pause" x="0" y="0" viewBox="0 0 24 24" xml:space="preserve" xmlns="http://www.w3.org/2000/svg"><style>.cst0{fill:#fff}</style><path class="cst0" d="M22 2v20h-5V2h5m2-2h-9v24h9V0zM7 2v20H2V2h5m2-2H0v24h9V0z"/></svg><svg version="1.1" id="pause-hover" x="0" y="0" viewBox="0 0 24 24" xml:space="preserve" xmlns="http://www.w3.org/2000/svg"><style>.dst0{fill:#fff}</style><path class="dst0" d="M15 0h9v24h-9zM0 0h9v24H0z"/></svg><svg version="1.1" id="play" x="0" y="0" viewBox="0 0 24 24" xml:space="preserve" xmlns="http://www.w3.org/2000/svg"><style>.est0{fill:#fff}</style><path class="est0" d="M2 3.2L19.5 12 2 20.8V3.2M0 0v24l24-12L0 0z"/></svg><svg version="1.1" id="play-hover" x="0" y="0" viewBox="0 0 24 24" xml:space="preserve" xmlns="http://www.w3.org/2000/svg"><style>.fst0{fill:#fff}</style><path class="fst0" d="M0 0v24l24-12z"/></svg><svg version="1.1" id="stop" x="0" y="0" viewBox="0 0 24 24" xml:space="preserve" xmlns="http://www.w3.org/2000/svg"><style>.gst0{fill:#fff}</style><path class="gst0" d="M21.8 2.2v19.7H2.2V2.2h19.6M24 0H0v24h24V0z"/></svg><svg version="1.1" id="stop-hover" x="0" y="0" viewBox="0 0 24 24" xml:space="preserve" xmlns="http://www.w3.org/2000/svg"><style>.hst0{fill:#fff}</style><path class="hst0" d="M24 0H0v24h24V0z"/></svg><svg version="1.1" id="zoom" x="0" y="0" viewBox="0 0 24 24" xml:space="preserve" xmlns="http://www.w3.org/2000/svg"><style>.ist0{fill:#fff}</style><path class="ist0" d="M24 22.4l-5.2-5.2c1.5-1.8 2.3-4.1 2.3-6.6C21.2 4.7 16.4 0 10.6 0 4.7 0 0 4.7 0 10.6c0 5.8 4.7 10.6 10.6 10.6 2.5 0 4.8-.9 6.6-2.3l5.2 5.2 1.6-1.7zM2.3 10.6C2.3 6 6 2.3 10.6 2.3c4.6 0 8.3 3.7 8.3 8.3 0 4.6-3.7 8.3-8.3 8.3-4.6 0-8.3-3.7-8.3-8.3z"/></svg></svg>