<?xml version="1.0" encoding="utf-8"?>
<!-- Generator: Adobe Illustrator 22.1.0, SVG Export Plug-In . SVG Version: 6.00 Build 0)  -->
<svg version="1.1" id="Layer_1" xmlns="http://www.w3.org/2000/svg" xmlns:xlink="http://www.w3.org/1999/xlink" x="0px" y="0px"
	 viewBox="0 0 1920 1080" style="enable-background:new 0 0 1920 1080;" xml:space="preserve">
<style type="text/css">
	.st0{fill:#FFFFFF;}
</style>
<circle class="st0" cx="730.5" cy="442.5" r="0.5"/>
<circle class="st0" cx="1483.5" cy="917.5" r="0.5"/>
<circle class="st0" cx="978.5" cy="615.5" r="0.5"/>
<circle class="st0" cx="1786.5" cy="103.5" r="0.5"/>
<circle class="st0" cx="1741.5" cy="705.5" r="0.5"/>
<circle class="st0" cx="1259.5" cy="411.5" r="0.5"/>
<circle class="st0" cx="427.5" cy="874.5" r="0.5"/>
<circle class="st0" cx="185.5" cy="97.5" r="0.5"/>
<circle class="st0" cx="83.5" cy="647.5" r="0.5"/>
<circle class="st0" cx="399.5" cy="331.5" r="0.5"/>
<circle class="st0" cx="823.5" cy="996.5" r="0.5"/>
<circle class="st0" cx="901.5" cy="203.5" r="0.5"/>
<circle class="st0" cx="963.5" cy="219.5" r="0.5"/>
<circle class="st0" cx="897.5" cy="267.5" r="0.5"/>
<circle class="st0" cx="957.5" cy="395.5" r="0.5"/>
<circle class="st0" cx="1485.5" cy="99.5" r="0.5"/>
<circle class="st0" cx="1597.5" cy="789.5" r="0.5"/>
<circle class="st0" cx="1567.5" cy="415.5" r="0.5"/>
<circle class="st0" cx="1303.5" cy="685.5" r="0.5"/>
<circle class="st0" cx="1195.5" cy="980.5" r="0.5"/>
<circle class="st0" cx="634.5" cy="697.5" r="0.5"/>
<circle class="st0" cx="115.5" cy="989.5" r="0.5"/>
<circle class="st0" cx="1802.5" cy="1019.5" r="0.5"/>
<circle class="st0" cx="1668.5" cy="582.5" r="0.5"/>
<circle class="st0" cx="413.5" cy="910.5" r="0.5"/>
<circle class="st0" cx="351.5" cy="879.5" r="0.5"/>
<circle class="st0" cx="373.5" cy="777.5" r="0.5"/>
<circle class="st0" cx="371.5" cy="577.5" r="0.5"/>
<circle class="st0" cx="645.5" cy="215.5" r="0.5"/>
<circle class="st0" cx="466.5" cy="69.5" r="0.5"/>
<circle class="st0" cx="229.5" cy="401.5" r="0.5"/>
<circle class="st0" cx="37.5" cy="526.5" r="0.5"/>
<circle class="st0" cx="1844.5" cy="519.5" r="0.5"/>
<circle class="st0" cx="1119.5" cy="821.5" r="0.5"/>
<circle class="st0" cx="937.5" cy="910.5" r="0.5"/>
<circle class="st0" cx="1486.5" cy="667.5" r="0.5"/>
<circle class="st0" cx="1369.5" cy="257.5" r="0.5"/>
<circle class="st0" cx="1131.5" cy="85.5" r="0.5"/>
<circle class="st0" cx="1584.5" cy="1010.5" r="0.5"/>
<circle class="st0" cx="1644.5" cy="281.5" r="0.5"/>
<circle class="st0" cx="1882.5" cy="337.5" r="0.5"/>
<circle class="st0" cx="673.5" cy="890.5" r="0.5"/>
<circle class="st0" cx="1835.5" cy="693.5" r="0.5"/>
<circle class="st0" cx="1769.5" cy="735.5" r="0.5"/>
<circle class="st0" cx="1737.5" cy="855.5" r="0.5"/>
<circle class="st0" cx="1303.5" cy="835.5" r="0.5"/>
<circle class="st0" cx="1057.5" cy="129.5" r="0.5"/>
<circle class="st0" cx="1057.5" cy="207.5" r="0.5"/>
<circle class="st0" cx="981.5" cy="141.5" r="0.5"/>
<circle class="st0" cx="1009.5" cy="291.5" r="0.5"/>
<circle class="st0" cx="883.5" cy="353.5" r="0.5"/>
<circle class="st0" cx="489.5" cy="819.5" r="0.5"/>
<circle class="st0" cx="92.5" cy="243.5" r="0.5"/>
<circle class="st0" cx="42.5" cy="61.5" r="0.5"/>
<circle class="st0" cx="305.5" cy="148.5" r="0.5"/>
<circle class="st0" cx="671.5" cy="87.5" r="0.5"/>
<circle class="st0" cx="225.5" cy="735.5" r="0.5"/>
<circle class="st0" cx="1862.5" cy="952.5" r="0.5"/>
<circle class="st0" cx="821.5" cy="819.5" r="0.5"/>
<circle class="st0" cx="1182.5" cy="541.5" r="0.5"/>
<circle class="st0" cx="749.5" cy="641.5" r="0.5"/>
<circle class="st0" cx="1231.5" cy="183.5" r="0.5"/>
<circle class="st0" cx="945.5" cy="193.5" r="0.5"/>
<circle class="st0" cx="927.5" cy="225.5" r="0.5"/>
<circle class="st0" cx="947.5" cy="261.5" r="0.5"/>
<circle class="st0" cx="847.5" cy="296.5" r="0.5"/>
<circle class="st0" cx="759.5" cy="317.5" r="0.5"/>
<circle class="st0" cx="1105.5" cy="262.5" r="0.5"/>
<circle class="st0" cx="967.5" cy="329.5" r="0.5"/>
</svg>
