<?xml version="1.0" encoding="utf-8"?>
<!-- Generator: Adobe Illustrator 22.1.0, SVG Export Plug-In . SVG Version: 6.00 Build 0)  -->
<svg version="1.1" id="Layer_1" xmlns="http://www.w3.org/2000/svg" xmlns:xlink="http://www.w3.org/1999/xlink" x="0px" y="0px"
	 viewBox="0 0 1920 1080" style="enable-background:new 0 0 1920 1080;" xml:space="preserve">
<style type="text/css">
	.st0{fill:#FFFFFF;}
</style>
<circle class="st0" cx="487.5" cy="343.5" r="1.5"/>
<circle class="st0" cx="1767" cy="595" r="1.5"/>
<circle class="st0" cx="1410" cy="423" r="1.5"/>
<circle class="st0" cx="738" cy="819" r="1.5"/>
<circle class="st0" cx="1126" cy="143" r="1.5"/>
<circle class="st0" cx="250" cy="891" r="1.5"/>
<circle class="st0" cx="1434" cy="395" r="1.5"/>
<circle class="st0" cx="1670" cy="787" r="1.5"/>
<circle class="st0" cx="1406" cy="483" r="1.5"/>
<circle class="st0" cx="770" cy="327" r="1.5"/>
<circle class="st0" cx="239.5" cy="244.5" r="1.5"/>
<circle class="st0" cx="322.5" cy="609.5" r="1.5"/>
<circle class="st0" cx="1028.5" cy="551.5" r="1.5"/>
<circle class="st0" cx="1168.5" cy="905.5" r="1.5"/>
<circle class="st0" cx="1878.5" cy="73.5" r="1.5"/>
<circle class="st0" cx="1865.5" cy="1019.5" r="1.5"/>
<circle class="st0" cx="1725.5" cy="290.5" r="1.5"/>
<circle class="st0" cx="594.5" cy="61.5" r="1.5"/>
<circle class="st0" cx="59.5" cy="683.5" r="1.5"/>
<circle class="st0" cx="200.5" cy="410.5" r="1.5"/>
<circle class="st0" cx="42.5" cy="55.5" r="1.5"/>
<circle class="st0" cx="1320.5" cy="724.5" r="1.5"/>
<circle class="st0" cx="1474.5" cy="927.5" r="2"/>
<circle class="st0" cx="651" cy="1025" r="2"/>
<circle class="st0" cx="1584" cy="64" r="2"/>
<circle class="st0" cx="675" cy="558" r="2"/>
<circle class="st0" cx="433" cy="945" r="2"/>
<circle class="st0" cx="1259" cy="264" r="2"/>
</svg>
